<svg width="26" height="36" viewBox="0 0 26 36" fill="none" xmlns="http://www.w3.org/2000/svg">
<path d="M10.5635 35.5419C10.0916 35.7426 9.66459 35.6306 9.23232 35.4722C8.55337 35.2235 8.04865 34.7477 7.55821 34.2437C7.04605 33.7173 6.51734 33.2072 6.00317 32.6827C5.41214 32.0799 4.86277 31.4499 4.63376 30.6038C4.52514 30.2025 4.39253 29.8069 4.25342 29.4149C4.04536 28.8285 3.81242 28.2509 3.60878 27.6631C3.49019 27.3208 3.41312 26.9644 3.3083 26.617C3.18281 26.2012 3.04511 25.789 2.9175 25.3738C2.82068 25.0587 2.73797 24.7392 2.63698 24.4255C2.52362 24.0734 2.39144 23.7274 2.27728 23.3755C2.16533 23.0304 2.06732 22.6808 1.96 22.3342C1.91008 22.173 1.85275 22.0141 1.79856 21.8542C1.72557 21.6388 1.6508 21.4241 1.5796 21.2081C1.45544 20.8315 1.32973 20.4553 1.2114 20.0769C1.05184 19.5666 0.90431 19.0524 0.741059 18.5433C0.587366 18.064 0.39125 17.5965 0.265943 17.1104C0.11211 16.5136 -0.097953 15.9373 0.0508844 15.2747C0.186029 14.673 0.457964 14.1508 0.715788 13.614C1.11386 12.7853 1.5366 11.9685 1.94822 11.1462C2.4581 10.1278 2.9625 9.10654 3.47818 8.09104C3.97844 7.1059 4.49641 6.12975 4.99476 5.14366C5.47869 4.18612 5.94574 3.22005 6.42379 2.25951C6.69683 1.7109 6.95472 1.15325 7.43794 0.741973C7.8936 0.354142 8.38388 0.0558769 9.00514 0.0505561C11.2313 0.0314872 13.4574 0.00366314 15.6836 4.79917e-06C16.4088 -0.00118731 17.0821 0.219711 17.6699 0.660007C17.8102 0.765074 17.9418 0.883972 18.066 1.00783C19.0407 1.9791 19.9999 2.9664 20.9896 3.92196C21.7327 4.6394 22.0499 5.50344 21.9203 6.50546C21.8715 6.88274 21.6495 7.23876 21.4992 7.60147C21.1621 8.41512 20.6208 9.13426 20.4164 10.0119C20.2872 10.5666 20.5354 10.9638 20.8973 11.3078C21.5671 11.9442 22.2569 12.5597 22.9427 13.1791C23.3714 13.5665 23.8279 13.9252 24.2355 14.3333C24.6337 14.732 24.8827 15.2301 25.0042 15.787C25.1038 16.2433 25.0796 16.6926 24.8881 17.1162C24.7676 17.3828 24.61 17.6367 24.4416 17.877C24.0581 18.4242 23.6604 18.9616 23.2634 19.4991C22.9194 19.9646 22.5642 20.4218 22.2217 20.8884C21.8909 21.3392 21.5755 21.8014 21.2432 22.251C20.8924 22.7258 20.5264 23.1893 20.1732 23.6623C19.925 23.9946 19.6898 24.3368 19.4438 24.6709C19.069 25.18 18.6882 25.6847 18.313 26.1935C17.7959 26.8946 17.2827 27.5988 16.7656 28.3C16.3912 28.8077 16.0081 29.3089 15.6381 29.8198C15.2953 30.2933 14.9693 30.7791 14.6274 31.2533C14.3407 31.651 14.0418 32.0398 13.748 32.4325C13.3916 32.909 13.0381 33.3878 12.6772 33.8608C12.4295 34.1855 12.1978 34.5288 11.9109 34.8155C11.5472 35.1791 11.1188 35.4644 10.5635 35.5419ZM15.3548 6.77605C15.5597 6.37223 15.7692 5.97065 15.9685 5.5641C16.3455 4.7952 16.7255 4.02753 17.0868 3.25127C17.2924 2.80982 17.0091 2.01888 16.5072 1.89255C16.221 1.82049 15.9268 1.73202 15.6363 1.73234C14.098 1.73408 12.5597 1.76351 11.0214 1.7793C10.4453 1.78522 9.86914 1.77719 9.29305 1.7812C8.84195 1.78434 8.5501 2.04958 8.34605 2.41335C8.08841 2.87266 7.85331 3.34481 7.61432 3.8144C7.00319 5.01516 6.39309 6.21645 5.78698 7.41976C5.43907 8.11044 5.09976 8.80546 4.75657 9.49853C4.19974 10.623 3.6439 11.748 3.08576 12.8719C2.68181 13.6853 2.27914 14.4994 1.86739 15.3088C1.64842 15.7393 1.81745 16.4806 2.23358 16.6819C2.45999 16.7915 2.71946 16.8908 2.96502 16.8932C4.7493 16.9109 6.53385 16.9023 8.31831 16.903C8.70919 16.9032 8.83757 17.0816 8.74886 17.4606C8.63655 17.9405 8.54207 18.4245 8.43667 18.906C8.27164 19.66 8.10535 20.4138 7.93688 21.167C7.79019 21.8229 7.63563 22.4771 7.49233 23.1337C7.3869 23.6169 7.30433 24.1052 7.19266 24.5868C7.08159 25.0659 6.93578 25.5369 6.82495 26.016C6.6127 26.9335 6.40595 27.8525 6.21443 28.7746C6.13372 29.1631 6.07958 29.5594 6.04704 29.955C6.02443 30.23 6.33939 30.6805 6.58769 30.7313C6.98304 30.8123 7.38315 30.8295 7.67656 30.4696C7.84746 30.26 8.00691 30.0406 8.16531 29.8212C8.59719 29.2228 9.01923 28.6172 9.45765 28.0238C9.83384 27.5145 10.233 27.0223 10.6116 26.5148C11.0587 25.9156 11.4935 25.3071 11.9359 24.7043C12.3042 24.2025 12.6771 23.704 13.0457 23.2024C13.5044 22.5784 13.9566 21.9497 14.4192 21.3286C14.8304 20.7767 15.2595 20.238 15.6671 19.6835C16.2396 18.9047 16.8001 18.1171 17.3644 17.3323C17.7468 16.8004 18.1211 16.2626 18.5093 15.735C19.0674 14.9762 19.6594 14.2411 20.1894 13.4635C20.5406 12.9483 20.1342 12.027 19.5745 11.8997C19.2584 11.8279 18.9303 11.779 18.6069 11.7746C17.4918 11.7597 16.3764 11.763 15.2611 11.7714C14.7079 11.7756 14.1533 11.8399 13.6021 11.8149C13.0787 11.7911 13.0274 11.7307 13.1281 11.2377C13.1492 11.1345 13.2055 11.0369 13.2543 10.9412C13.7607 9.94856 14.2694 8.95722 14.776 7.96474C14.9704 7.584 15.1608 7.20126 15.3548 6.77605Z" fill="#4F4F4F"/>
</svg>
