<svg width="1816" height="484" viewBox="0 0 1816 484" fill="none" xmlns="http://www.w3.org/2000/svg">
<path d="M1335.51 355.934C1324.06 369.247 1313.18 381.943 1302.36 394.695C1292.51 406.295 1282.79 417.99 1272.93 429.579C1257.04 448.267 1241.09 466.901 1225.04 485.696C1228.85 489.63 1232.97 487.954 1236.57 487.962C1292.16 488.081 1347.76 488.041 1403.36 488.048C1418.45 488.05 1420.84 490.614 1420.79 505.778C1420.7 528.481 1420.84 551.184 1420.78 573.886C1420.75 586.626 1417.63 589.84 1404.97 589.843C1272.24 589.88 1139.51 589.877 1006.78 589.845C997.502 589.843 996.145 588.911 993.659 580.071C990.839 570.042 988.453 559.89 985.512 548.354C982.734 550.273 980.107 551.579 978.122 553.536C952.921 578.383 922.007 591.837 887.809 598.301C877.182 600.309 866.088 601.96 855.414 601.131C837.713 599.755 819.661 598.069 802.677 593.262C760.406 581.298 729.139 555.21 708.145 516.117C698.472 498.104 694.034 478.748 688.926 459.523C686.367 449.894 686.284 439.434 686.233 429.344C685.983 379.657 686.12 329.969 686.12 277.339C683.337 281.637 681.68 283.474 680.823 285.629C669.721 313.561 658.781 341.558 647.701 369.499C640.596 387.412 633.18 405.203 626.171 423.153C618.053 443.941 610.464 464.936 602.221 485.673C589.527 517.611 576.378 549.369 563.598 581.273C552.4 609.227 542.593 637.706 528.825 664.649C514.195 693.279 494.393 716.583 464.451 729.233C451.789 734.583 437.929 737.875 424.286 739.967C394.164 744.587 363.69 744.561 333.264 744.147C323.033 744.007 318.84 739.906 318.901 729.909C319.06 703.694 319.285 677.478 319.697 651.267C319.762 647.148 320.936 643.046 321.683 638.397C329.865 638.397 337.286 638.778 344.655 638.321C362.134 637.236 379.774 636.896 396.998 634.097C412.788 631.53 425.924 623.07 433.408 607.938C435.466 603.776 436.929 599.322 438.944 595.137C445.992 580.501 445.303 567.276 436.787 552.52C426.152 534.092 418.698 513.831 409.814 494.387C402.732 478.889 395.59 463.419 388.429 447.957C376.205 421.561 363.852 395.223 351.729 368.78C342.221 348.039 333.056 327.14 323.578 306.384C319.874 298.271 315.732 290.358 311.519 281.806C275.605 281.806 239.369 281.806 203.774 281.806C203.774 287.267 203.774 292.212 203.774 297.158C203.774 388.384 203.773 479.611 203.772 570.837C203.772 572.794 203.846 574.755 203.757 576.709C203.334 586.064 200.248 589.72 191.149 589.777C157.87 589.985 124.589 589.949 91.3097 589.796C83.9869 589.763 82.0745 588.012 81.7458 580.895C81.4226 573.895 82.3197 566.848 82.2862 559.824C82.0986 520.716 81.6661 481.608 81.556 442.499C81.4213 394.733 81.5 346.967 81.5529 299.2C81.559 293.82 81.9961 288.441 82.2892 281.789C55.7797 281.789 30.1621 281.789 5.60428 281.789C-0.437914 275.621 -0.140501 269.292 0.0999826 263.058C0.535062 251.775 1.5109 240.5 1.55866 229.218C1.6143 216.07 0.922817 202.918 0.543808 189.768C0.393667 184.56 3.53185 181.99 8.07995 181.186C11.12 180.648 14.3261 181.031 17.4578 181.03C38.5227 181.025 59.5875 181.027 82.3246 181.027C82.3246 175.947 82.1512 171.789 82.3547 167.65C83.2153 150.147 81.5187 132.686 84.2327 115.064C86.6992 99.0501 91.8787 84.3315 98.9952 70.2675C109.581 49.3464 125.286 32.8217 145.735 21.0236C159.661 12.9887 174.752 7.77053 190.404 4.99594C222.794 -0.745974 255.618 -0.0215137 288.363 0.0862522C295.019 0.108193 301.679 -0.0547112 308.33 0.113857C318.813 0.379507 324.102 4.74527 324.247 14.7291C324.605 39.3814 324.487 64.0435 324.279 88.6993C324.218 96.0599 320.955 98.6156 311.657 98.7528C295.607 98.9898 279.549 99.0342 263.5 98.7754C230.942 98.2506 206.921 120.644 201.458 150.57C200.764 154.376 200.069 158.223 199.894 162.075C199.63 167.875 199.825 173.697 199.825 180.495C266.114 180.495 331.707 180.495 398.583 180.495C433.421 261.48 468.098 342.092 503.592 424.601C505.654 420.698 507.062 418.66 507.873 416.408C523.793 372.16 539.693 327.904 555.492 283.612C566.269 253.399 576.885 223.128 587.575 192.885C590.862 183.585 593.809 181.06 602.411 181.054C667.797 181.005 733.182 181.026 798.567 181.052C800.101 181.053 801.635 181.368 804.53 181.685C805.016 185.698 805.915 189.786 805.948 193.88C806.545 267.808 806.484 341.747 807.874 415.66C808.316 439.202 814.784 461.658 834.327 477.896C842.544 484.722 851.7 489.456 862.135 491.436C884.933 495.763 907.05 494.703 927.052 481.342C945.706 468.883 956.147 451.305 961.398 429.406C965.568 412.019 965.592 394.688 965.64 377.221C965.804 317.709 965.702 258.197 965.707 198.684C965.707 195.553 965.531 192.401 965.823 189.294C966.332 183.859 969.082 180.658 974.993 181.024C976.943 181.144 978.907 181.029 980.865 181.029C1121.03 181.028 1261.2 181.029 1401.37 181.029C1404.48 181.029 1407.59 181.029 1412.36 181.029C1413.1 185.577 1414.38 189.91 1414.43 194.257C1414.65 214.615 1414.37 234.978 1414.63 255.334C1414.7 260.744 1413.4 265.04 1409.82 269.131C1398.28 282.322 1387 295.737 1375.61 309.067C1362.44 324.491 1349.27 339.916 1335.51 355.934ZM1210.49 335.393C1224.29 317.412 1241.05 301.837 1255.7 282.16C1198.11 282.16 1142.9 282.16 1087.26 282.16C1087.26 346.677 1087.26 410.305 1087.26 474.75C1093.74 472.701 1096.91 467.767 1100.57 463.436C1111.9 450.027 1123.12 436.515 1134.59 423.232C1151.68 403.46 1168.98 383.876 1186.13 364.158C1194.01 355.096 1201.74 345.905 1210.49 335.393Z" fill="#E2E1DC"/>
<path d="M1743.03 458.229C1763.95 459.09 1783.89 456.141 1804.47 460.726C1804.13 464.262 1804.71 467.673 1803.43 470.122C1796.64 483.159 1791.01 496.88 1780.94 508.046C1773.96 515.784 1767.85 524.314 1760.85 532.033C1741.72 553.129 1718.79 569.152 1692.56 580.019C1667.1 590.571 1641.03 598.87 1612.83 598.68C1599.33 598.589 1585.84 599.39 1572.27 598.898C1551.05 598.131 1530.74 593.669 1511.03 586.438C1486.46 577.427 1463.95 565.075 1444.08 547.413C1423.91 529.491 1407.64 508.851 1396.4 484.742C1389.11 469.131 1383.68 452.326 1379.92 435.496C1376.22 418.915 1374.12 401.622 1374.18 384.652C1374.24 367.281 1376.94 349.774 1379.99 332.592C1385.11 303.728 1397.87 277.721 1414.69 254.091C1433.03 228.322 1457.82 209.745 1485.72 194.906C1505.82 184.217 1527.18 177.579 1549.26 173.597C1569.46 169.955 1590.03 167.266 1610.64 169.406C1624.84 170.881 1638.98 173.417 1652.98 176.283C1673.63 180.509 1692.53 189.378 1710.84 199.619C1738.21 214.923 1760.11 235.909 1776.62 262.504C1781.5 270.374 1786.34 278.343 1790.33 286.683C1799.52 305.886 1805.55 326.008 1809.63 347.05C1813.52 367.076 1815.64 387.008 1815.52 407.297C1815.44 420.397 1813.66 421.981 1800.75 420.799C1798.03 420.55 1795.27 420.686 1792.53 420.686C1698.55 420.685 1604.58 420.68 1510.6 420.715C1506.03 420.717 1501.47 421.063 1496.4 421.269C1500.9 452.285 1517.97 473.721 1542.62 488.462C1553.41 494.918 1567.21 496.782 1579.91 499.527C1600.95 504.077 1621.25 498.604 1641.26 492.809C1656.6 488.367 1668.81 478.664 1679.2 466.899C1684.52 460.872 1690.07 457.715 1698.4 458.061C1712.86 458.661 1727.37 458.229 1743.03 458.229ZM1596.2 269.559C1577.78 268.908 1560.44 272.455 1543.91 281.121C1529.35 288.753 1518.15 299.817 1509.16 313.013C1503.34 321.561 1498.69 331.139 1498.11 343.142C1510.85 343.142 1523.26 343.142 1535.68 343.142C1571.26 343.14 1606.85 343.137 1642.44 343.137C1656.91 343.136 1671.39 343.293 1685.86 343.03C1689.24 342.968 1692.6 341.488 1697.13 340.378C1691.56 329.42 1687.24 319.968 1682.1 310.988C1673.26 295.551 1659.22 285.054 1643.74 277.956C1629.84 271.579 1614.42 267.782 1596.2 269.559Z" fill="#E2E1DC"/>
</svg>
