<svg width="1920" height="716" viewBox="0 0 1920 716" fill="none" xmlns="http://www.w3.org/2000/svg">
<g filter="url(#filter0_f_5_57)">
<path d="M1410.23 633.046C1396.93 648.51 1384.29 663.257 1371.73 678.068C1360.3 691.542 1348.99 705.127 1337.55 718.588C1319.09 740.294 1300.56 761.938 1281.92 783.77C1286.35 788.339 1291.13 786.392 1295.31 786.401C1359.89 786.539 1424.46 786.493 1489.04 786.501C1506.58 786.503 1509.35 789.481 1509.29 807.096C1509.19 833.465 1509.34 859.835 1509.28 886.205C1509.25 901.002 1505.62 904.736 1490.91 904.74C1336.74 904.782 1182.58 904.778 1028.41 904.742C1017.63 904.739 1016.05 903.657 1013.16 893.388C1009.89 881.74 1007.12 869.948 1003.7 856.548C1000.48 858.777 997.424 860.294 995.118 862.568C965.847 891.428 929.939 907.056 890.217 914.563C877.873 916.895 864.988 918.814 852.589 917.85C832.029 916.253 811.061 914.294 791.333 908.71C742.234 894.813 705.918 864.512 681.533 819.104C670.296 798.181 665.142 775.699 659.208 753.368C656.237 742.185 656.14 730.034 656.081 718.314C655.791 660.602 655.949 602.887 655.949 541.756C652.717 546.748 650.792 548.882 649.797 551.385C636.902 583.83 624.195 616.348 611.324 648.802C603.072 669.61 594.458 690.274 586.317 711.124C576.888 735.269 568.072 759.656 558.499 783.742C543.754 820.84 528.481 857.727 513.636 894.785C500.63 927.255 489.238 960.334 473.247 991.628C456.253 1024.88 433.253 1051.95 398.474 1066.65C383.767 1072.86 367.668 1076.68 351.821 1079.11C316.834 1084.48 281.437 1084.45 246.097 1083.97C234.213 1083.81 229.343 1079.04 229.413 1067.43C229.598 1036.98 229.86 1006.53 230.338 976.085C230.413 971.3 231.777 966.536 232.645 961.136C242.148 961.136 250.768 961.579 259.327 961.047C279.629 959.788 300.119 959.393 320.125 956.141C338.466 953.16 353.724 943.334 362.417 925.757C364.807 920.923 366.506 915.75 368.847 910.888C377.033 893.888 376.233 878.526 366.342 861.387C353.988 839.982 345.331 816.449 335.011 793.865C326.785 775.863 318.489 757.894 310.172 739.935C295.973 709.274 281.625 678.682 267.544 647.968C256.5 623.876 245.855 599.601 234.846 575.493C230.543 566.07 225.732 556.879 220.838 546.944C179.124 546.944 137.034 546.944 95.6901 546.944C95.6901 553.288 95.6901 559.032 95.6901 564.777C95.6893 670.739 95.6884 776.701 95.6876 882.663C95.6876 884.937 95.7731 887.214 95.6703 889.484C95.1781 900.349 91.594 904.596 81.0249 904.662C42.3708 904.904 3.71372 904.862 -34.9411 904.685C-43.4467 904.646 -45.668 902.612 -46.0497 894.345C-46.4252 886.215 -45.3831 878.03 -45.4221 869.871C-45.64 824.446 -46.1423 779.021 -46.2703 733.595C-46.4267 678.113 -46.3352 622.631 -46.2738 567.149C-46.2668 560.9 -45.7591 554.651 -45.4186 546.925C-76.2102 546.925 -105.966 546.925 -134.49 546.925C-141.509 539.76 -141.163 532.41 -140.884 525.168C-140.379 512.063 -139.245 498.966 -139.19 485.863C-139.125 470.59 -139.928 455.314 -140.368 440.04C-140.543 433.991 -136.898 431.006 -131.615 430.071C-128.084 429.446 -124.36 429.891 -120.722 429.891C-96.2548 429.885 -71.7873 429.887 -45.3775 429.887C-45.3775 423.986 -45.5789 419.157 -45.3425 414.35C-44.3429 394.019 -46.3136 373.738 -43.1612 353.269C-40.2963 334.668 -34.2801 317.572 -26.014 301.236C-13.7179 276.936 4.52356 257.742 28.2753 244.038C44.4512 234.705 61.9798 228.644 80.1603 225.421C117.782 218.752 155.908 219.594 193.943 219.719C201.674 219.744 209.409 219.555 217.135 219.751C229.311 220.059 235.455 225.13 235.623 236.727C236.039 265.361 235.901 294.007 235.66 322.645C235.589 331.195 231.799 334.164 220.999 334.323C202.357 334.598 183.704 334.65 165.063 334.349C127.246 333.74 99.3449 359.75 93.0001 394.51C92.1931 398.931 91.3859 403.4 91.1825 407.874C90.8762 414.611 91.1028 421.373 91.1028 429.269C168.1 429.269 244.288 429.269 321.966 429.269C362.431 523.335 402.71 616.969 443.937 712.805C446.333 708.272 447.968 705.905 448.91 703.289C467.402 651.893 485.87 600.488 504.221 549.042C516.739 513.949 529.069 478.789 541.486 443.66C545.304 432.858 548.727 429.926 558.719 429.918C634.666 429.862 710.613 429.886 786.56 429.916C788.342 429.917 790.124 430.282 793.486 430.651C794.051 435.313 795.095 440.06 795.133 444.816C795.826 530.686 795.755 616.568 797.37 702.42C797.884 729.766 805.397 755.848 828.097 774.709C837.64 782.638 848.275 788.136 860.396 790.437C886.876 795.462 912.566 794.231 935.799 778.712C957.466 764.24 969.594 743.823 975.694 718.387C980.536 698.191 980.565 678.06 980.621 657.773C980.811 588.648 980.692 519.522 980.698 450.396C980.698 446.759 980.494 443.098 980.833 439.49C981.424 433.176 984.619 429.459 991.484 429.883C993.749 430.023 996.03 429.889 998.304 429.889C1161.11 429.889 1323.92 429.889 1486.73 429.89C1490.35 429.89 1493.96 429.89 1499.5 429.89C1500.36 435.171 1501.85 440.205 1501.9 445.255C1502.16 468.9 1501.83 492.552 1502.14 516.196C1502.22 522.48 1500.7 527.47 1496.55 532.222C1483.14 547.544 1470.04 563.127 1456.82 578.609C1441.52 596.525 1426.22 614.441 1410.23 633.046ZM1265.02 609.188C1281.05 588.302 1300.52 570.212 1317.53 547.356C1250.64 547.356 1186.51 547.356 1121.89 547.356C1121.89 622.294 1121.89 696.2 1121.89 771.055C1129.41 768.676 1133.09 762.944 1137.35 757.914C1150.51 742.338 1163.53 726.644 1176.87 711.215C1196.71 688.25 1216.81 665.503 1236.72 642.599C1245.87 632.073 1254.85 621.397 1265.02 609.188Z" fill="url(#paint0_linear_5_57)"/>
<path d="M1883.58 751.865C1907.89 752.866 1931.05 749.44 1954.94 754.765C1954.56 758.873 1955.22 762.836 1953.74 765.679C1945.85 780.822 1939.31 796.759 1927.61 809.729C1919.51 818.718 1912.41 828.625 1904.28 837.591C1882.06 862.095 1855.43 880.706 1824.96 893.328C1795.38 905.585 1765.11 915.225 1732.35 915.004C1716.67 914.898 1701 915.828 1685.24 915.257C1660.6 914.366 1637.01 909.183 1614.1 900.784C1585.56 890.318 1559.42 875.971 1536.34 855.456C1512.91 834.639 1494.02 810.664 1480.96 782.661C1472.5 764.528 1466.19 745.009 1461.82 725.461C1457.52 706.201 1455.08 686.115 1455.15 666.404C1455.22 646.227 1458.35 625.891 1461.9 605.935C1467.84 572.408 1482.67 542.2 1502.2 514.753C1523.5 484.821 1552.31 463.244 1584.71 446.008C1608.06 433.592 1632.87 425.882 1658.51 421.257C1681.98 417.027 1705.87 413.903 1729.81 416.389C1746.31 418.102 1762.73 421.048 1778.99 424.376C1802.98 429.285 1824.92 439.587 1846.19 451.482C1877.98 469.258 1903.43 493.634 1922.6 524.524C1928.27 533.666 1933.89 542.923 1938.52 552.61C1949.2 574.915 1956.21 598.287 1960.95 622.727C1965.45 645.989 1967.93 669.14 1967.78 692.706C1967.68 707.922 1965.63 709.762 1950.62 708.389C1947.46 708.1 1944.26 708.258 1941.08 708.258C1831.92 708.257 1722.77 708.252 1613.61 708.292C1608.3 708.294 1603 708.696 1597.12 708.936C1602.34 744.961 1622.17 769.86 1650.8 786.982C1663.34 794.48 1679.36 796.646 1694.11 799.834C1718.55 805.12 1742.13 798.762 1765.38 792.031C1783.19 786.872 1797.37 775.601 1809.44 761.936C1815.62 754.935 1822.07 751.268 1831.74 751.67C1848.54 752.367 1865.39 751.865 1883.58 751.865ZM1713.04 532.719C1691.64 531.964 1671.49 536.084 1652.29 546.149C1635.38 555.015 1622.37 567.865 1611.94 583.192C1605.18 593.121 1599.78 604.246 1599.1 618.188C1613.9 618.188 1628.32 618.189 1642.74 618.188C1684.07 618.186 1725.4 618.183 1766.74 618.182C1783.55 618.182 1800.37 618.364 1817.18 618.058C1821.11 617.986 1825.01 616.268 1830.26 614.978C1823.8 602.25 1818.79 591.271 1812.81 580.841C1802.54 562.91 1786.23 550.718 1768.26 542.473C1752.11 535.066 1734.19 530.655 1713.04 532.719Z" fill="url(#paint1_linear_5_57)"/>
</g>
<defs>
<filter id="filter0_f_5_57" x="-360.619" y="0" width="2857.24" height="1430.81" filterUnits="userSpaceOnUse" color-interpolation-filters="sRGB">
<feFlood flood-opacity="0" result="BackgroundImageFix"/>
<feBlend mode="normal" in="SourceGraphic" in2="BackgroundImageFix" result="shape"/>
<feGaussianBlur stdDeviation="109.809" result="effect1_foregroundBlur_5_57"/>
</filter>
<linearGradient id="paint0_linear_5_57" x1="1338.54" y1="1084.17" x2="488.243" y2="219.619" gradientUnits="userSpaceOnUse">
<stop stop-color="#DD3305"/>
<stop offset="0.5" stop-color="#FF6B3A"/>
<stop offset="1" stop-color="#FFB347"/>
</linearGradient>
<linearGradient id="paint1_linear_5_57" x1="1338.54" y1="1084.17" x2="488.243" y2="219.619" gradientUnits="userSpaceOnUse">
<stop stop-color="#DD3305"/>
<stop offset="0.5" stop-color="#FF6B3A"/>
<stop offset="1" stop-color="#FFB347"/>
</linearGradient>
</defs>
</svg>
