<svg width="1328" height="415" viewBox="0 0 1328 415" fill="none" xmlns="http://www.w3.org/2000/svg">
<path d="M108.747 365.889C103.889 367.954 99.4928 366.802 95.0428 365.172C88.0533 362.611 82.8574 357.713 77.8086 352.524C72.5361 347.106 67.0932 341.854 61.8001 336.455C55.7157 330.249 50.0601 323.764 47.7026 315.053C46.5844 310.922 45.2192 306.849 43.7872 302.813C41.6453 296.777 39.2473 290.831 37.1508 284.78C35.93 281.256 35.1366 277.587 34.0576 274.011C32.7657 269.73 31.3481 265.487 30.0344 261.212C29.0377 257.969 28.1862 254.679 27.1466 251.45C25.9796 247.826 24.6189 244.263 23.4437 240.641C22.2911 237.088 21.2821 233.489 20.1773 229.921C19.6635 228.262 19.0733 226.625 18.5154 224.98C17.764 222.763 16.9942 220.552 16.2613 218.329C14.9831 214.451 13.689 210.579 12.4708 206.683C10.8282 201.429 9.30948 196.137 7.62889 190.895C6.04668 185.961 4.02775 181.149 2.73777 176.144C1.15412 170 -1.00838 164.068 0.523833 157.246C1.91509 151.052 4.71455 145.676 7.36873 140.151C11.4667 131.619 15.8186 123.21 20.0561 114.746C25.3051 104.261 30.4977 93.748 35.8064 83.2938C40.9564 73.1522 46.2886 63.1031 51.419 52.9518C56.4007 43.0943 61.2088 33.149 66.1301 23.2607C68.941 17.613 71.5959 11.8722 76.5704 7.6383C81.2612 3.64574 86.3085 0.575229 92.7041 0.520453C115.621 0.324148 138.539 0.0377105 161.456 4.94054e-05C168.921 -0.0122228 175.853 2.26183 181.904 6.79449C183.348 7.87611 184.703 9.10012 185.982 10.3752C196.016 20.374 205.89 30.5378 216.079 40.375C223.729 47.7607 226.994 56.6556 225.66 66.971C225.158 70.8548 222.872 74.52 221.325 78.2539C217.855 86.6301 212.282 94.0333 210.178 103.068C208.848 108.779 211.403 112.868 215.129 116.409C222.024 122.961 229.125 129.297 236.185 135.674C240.599 139.661 245.298 143.354 249.494 147.555C253.594 151.66 256.157 156.787 257.408 162.52C258.433 167.218 258.184 171.844 256.213 176.204C254.972 178.949 253.35 181.562 251.616 184.036C247.668 189.669 243.574 195.201 239.486 200.735C235.946 205.527 232.289 210.234 228.763 215.038C225.357 219.678 222.11 224.436 218.689 229.065C215.078 233.952 211.311 238.724 207.675 243.593C205.119 247.015 202.698 250.537 200.166 253.976C196.307 259.217 192.387 264.413 188.524 269.65C183.201 276.869 177.918 284.118 172.595 291.336C168.741 296.563 164.796 301.723 160.988 306.982C157.458 311.857 154.103 316.857 150.583 321.739C147.631 325.833 144.554 329.837 141.53 333.878C137.861 338.784 134.222 343.713 130.506 348.583C127.956 351.925 125.571 355.459 122.618 358.411C118.873 362.154 114.463 365.091 108.747 365.889ZM158.072 69.7566C160.181 65.5994 162.337 61.4653 164.389 57.2801C168.27 49.3645 172.181 41.4617 175.902 33.4704C178.017 28.9259 175.102 20.7835 169.935 19.483C166.988 18.7411 163.96 17.8304 160.969 17.8337C145.133 17.8516 129.297 18.1546 113.461 18.3172C107.53 18.3781 101.599 18.2954 95.668 18.3367C91.0242 18.3691 88.0196 21.0996 85.919 24.8444C83.2667 29.5728 80.8465 34.4334 78.3862 39.2676C72.0949 51.6289 65.8141 63.9957 59.5745 76.3832C55.9929 83.4936 52.4998 90.6485 48.9668 97.7833C43.2346 109.36 37.5124 120.941 31.7666 132.511C27.6081 140.884 23.4628 149.265 19.224 157.598C16.9698 162.029 18.7099 169.661 22.9937 171.734C25.3246 172.861 27.9956 173.883 30.5236 173.908C48.8921 174.09 67.2632 174.001 85.6334 174.009C89.6574 174.011 90.979 175.848 90.0658 179.75C88.9096 184.69 87.937 189.672 86.852 194.629C85.153 202.392 83.4411 210.151 81.7068 217.905C80.1967 224.658 78.6055 231.392 77.1304 238.152C76.0449 243.126 75.195 248.152 74.0454 253.111C72.9019 258.042 71.4009 262.891 70.2599 267.824C68.075 277.269 65.9465 286.73 63.9749 296.222C63.1441 300.222 62.5866 304.302 62.2517 308.374C62.0189 311.205 65.2613 315.843 67.8174 316.366C71.8874 317.199 76.0064 317.376 79.0269 313.671C80.7863 311.513 82.4277 309.256 84.0583 306.996C88.5044 300.837 92.8491 294.602 97.3625 288.493C101.235 283.25 105.344 278.183 109.242 272.959C113.845 266.79 118.321 260.526 122.875 254.321C126.667 249.154 130.505 244.023 134.3 238.859C139.022 232.435 143.677 225.962 148.44 219.569C152.672 213.887 157.09 208.342 161.286 202.633C167.179 194.616 172.95 186.508 178.759 178.428C182.696 172.953 186.549 167.417 190.545 161.985C196.29 154.174 202.385 146.606 207.841 138.601C211.456 133.297 207.273 123.813 201.511 122.503C198.257 121.763 194.879 121.259 191.55 121.215C180.071 121.061 168.588 121.095 157.107 121.181C151.411 121.224 145.702 121.887 140.028 121.629C134.64 121.384 134.111 120.763 135.148 115.687C135.365 114.625 135.945 113.62 136.448 112.635C141.66 102.416 146.898 92.2107 152.113 81.9936C154.113 78.0741 156.074 74.1339 158.072 69.7566Z" fill="white"/>
<path d="M1060.43 198.403C1054.05 205.824 1047.98 212.901 1041.95 220.009C1036.47 226.475 1031.04 232.994 1025.55 239.454C1016.69 249.871 1007.8 260.258 998.857 270.735C1000.98 272.927 1003.28 271.993 1005.28 271.997C1036.27 272.064 1067.26 272.042 1098.25 272.046C1106.67 272.047 1108 273.476 1107.97 281.929C1107.92 294.583 1108 307.238 1107.97 319.893C1107.95 326.994 1106.21 328.786 1099.15 328.788C1025.17 328.808 951.181 328.806 877.196 328.789C872.023 328.788 871.266 328.268 869.881 323.34C868.309 317.75 866.979 312.091 865.34 305.661C863.791 306.73 862.327 307.459 861.22 308.55C847.173 322.4 829.941 329.899 810.878 333.502C804.955 334.621 798.771 335.542 792.821 335.08C782.954 334.313 772.892 333.373 763.424 330.693C739.862 324.024 722.434 309.483 710.731 287.692C705.339 277.651 702.865 266.862 700.018 256.145C698.592 250.778 698.545 244.947 698.517 239.323C698.378 211.627 698.454 183.93 698.454 154.593C696.903 156.989 695.979 158.013 695.501 159.214C689.313 174.784 683.215 190.39 677.038 205.964C673.078 215.949 668.945 225.866 665.037 235.872C660.512 247.459 656.282 259.163 651.687 270.721C644.611 288.524 637.282 306.227 630.158 324.011C623.916 339.593 618.449 355.467 610.775 370.485C602.62 386.445 591.582 399.435 574.892 406.486C567.834 409.468 560.108 411.303 552.504 412.469C535.713 415.044 518.726 415.03 501.767 414.799C496.064 414.721 493.727 412.435 493.76 406.862C493.849 392.25 493.975 377.637 494.204 363.026C494.24 360.73 494.894 358.444 495.311 355.852C499.872 355.852 504.008 356.065 508.116 355.81C517.859 355.205 527.692 355.016 537.293 353.455C546.095 352.024 553.417 347.309 557.588 338.874C558.736 336.554 559.551 334.071 560.674 331.739C564.603 323.58 564.219 316.208 559.472 307.983C553.544 297.711 549.389 286.417 544.436 275.579C540.489 266.94 536.508 258.317 532.516 249.698C525.702 234.984 518.817 220.303 512.059 205.564C506.759 194.002 501.65 182.353 496.368 170.783C494.303 166.261 491.994 161.85 489.645 157.083C469.627 157.083 449.428 157.083 429.587 157.083C429.587 160.127 429.587 162.884 429.587 165.641C429.587 216.491 429.586 267.342 429.586 318.193C429.586 319.284 429.627 320.378 429.577 321.467C429.341 326.681 427.621 328.719 422.549 328.751C403.999 328.866 385.448 328.847 366.897 328.762C362.816 328.743 361.75 327.767 361.566 323.8C361.386 319.898 361.886 315.97 361.868 312.054C361.763 290.255 361.522 268.456 361.461 246.656C361.385 220.03 361.429 193.405 361.459 166.779C361.462 163.78 361.706 160.781 361.869 157.074C347.092 157.074 332.813 157.074 319.124 157.074C315.756 153.635 315.922 150.108 316.056 146.632C316.298 140.343 316.842 134.058 316.869 127.77C316.9 120.441 316.514 113.11 316.303 105.78C316.219 102.877 317.969 101.444 320.504 100.996C322.198 100.696 323.986 100.909 325.731 100.909C337.473 100.906 349.215 100.908 361.889 100.908C361.889 98.0756 361.792 95.7581 361.906 93.4509C362.385 83.6942 361.44 73.9614 362.953 64.1384C364.327 55.2121 367.215 47.0077 371.181 39.1682C377.082 27.5064 385.836 18.2953 397.235 11.7189C404.998 7.24012 413.409 4.33141 422.134 2.78481C440.189 -0.415817 458.486 -0.0119921 476.738 0.0480783C480.448 0.0603083 484.16 -0.0304969 487.868 0.0634656C493.711 0.211543 496.66 2.64509 496.74 8.21024C496.94 21.9518 496.874 35.6988 496.758 49.4423C496.724 53.5453 494.905 54.9699 489.722 55.0463C480.776 55.1784 471.825 55.2032 462.879 55.0589C444.731 54.7664 431.341 67.2489 428.296 83.9298C427.909 86.0517 427.521 88.196 427.424 90.3431C427.277 93.5764 427.385 96.8213 427.385 100.611C464.336 100.611 500.899 100.611 538.176 100.611C557.595 145.753 576.925 190.687 596.71 236.679C597.86 234.503 598.644 233.368 599.096 232.112C607.97 207.447 616.833 182.778 625.64 158.089C631.647 141.248 637.564 124.375 643.523 107.517C645.356 102.333 646.998 100.926 651.793 100.922C688.24 100.895 724.687 100.907 761.134 100.921C761.989 100.922 762.844 101.097 764.457 101.274C764.729 103.511 765.229 105.789 765.248 108.072C765.58 149.28 765.546 190.495 766.321 231.695C766.568 244.818 770.173 257.335 781.067 266.386C785.647 270.192 790.751 272.83 796.567 273.934C809.275 276.346 821.604 275.755 832.753 268.308C843.151 261.362 848.971 251.564 851.898 239.358C854.222 229.666 854.236 220.005 854.263 210.269C854.354 177.096 854.297 143.923 854.3 110.75C854.3 109.004 854.202 107.247 854.365 105.516C854.648 102.486 856.181 100.702 859.476 100.905C860.563 100.972 861.658 100.908 862.749 100.908C940.88 100.908 1019.01 100.908 1097.14 100.909C1098.88 100.909 1100.61 100.909 1103.27 100.909C1103.69 103.443 1104.4 105.859 1104.43 108.282C1104.55 119.63 1104.39 130.98 1104.54 142.327C1104.58 145.343 1103.85 147.737 1101.85 150.018C1095.42 157.37 1089.13 164.849 1082.79 172.279C1075.45 180.876 1068.11 189.474 1060.43 198.403ZM990.745 186.953C998.437 176.93 1007.78 168.249 1015.95 157.28C983.845 157.28 953.07 157.28 922.058 157.28C922.058 193.243 922.058 228.71 922.058 264.633C925.666 263.491 927.434 260.741 929.474 258.326C935.791 250.852 942.042 243.32 948.44 235.916C957.963 224.895 967.607 213.979 977.165 202.987C981.557 197.936 985.867 192.813 990.745 186.953Z" fill="white"/>
<path d="M1287.59 255.424C1299.25 255.904 1310.37 254.26 1321.84 256.816C1321.65 258.787 1321.97 260.688 1321.26 262.053C1317.47 269.32 1314.34 276.968 1308.72 283.192C1304.83 287.506 1301.43 292.261 1297.53 296.563C1286.86 308.323 1274.08 317.254 1259.46 323.311C1245.27 329.194 1230.74 333.82 1215.02 333.714C1207.49 333.663 1199.97 334.109 1192.41 333.835C1180.58 333.407 1169.26 330.92 1158.27 326.889C1144.57 321.867 1132.03 314.982 1120.95 305.137C1109.71 295.147 1100.64 283.641 1094.37 270.203C1090.31 261.501 1087.28 252.133 1085.19 242.752C1083.13 233.509 1081.95 223.87 1081.99 214.411C1082.02 204.728 1083.53 194.969 1085.23 185.392C1088.08 169.303 1095.19 154.806 1104.57 141.634C1114.79 127.27 1128.61 116.915 1144.16 108.644C1155.37 102.685 1167.27 98.9852 1179.58 96.7659C1190.84 94.7356 1202.31 93.2366 1213.8 94.4295C1221.71 95.2516 1229.59 96.6653 1237.4 98.2626C1248.91 100.618 1259.44 105.562 1269.65 111.271C1284.9 119.801 1297.12 131.499 1306.32 146.324C1309.04 150.71 1311.73 155.153 1313.96 159.802C1319.08 170.506 1322.44 181.722 1324.72 193.451C1326.88 204.614 1328.07 215.724 1328 227.033C1327.95 234.335 1326.96 235.219 1319.77 234.56C1318.25 234.421 1316.71 234.497 1315.18 234.497C1262.8 234.496 1210.42 234.494 1158.03 234.513C1155.49 234.514 1152.94 234.707 1150.12 234.822C1152.62 252.111 1162.14 264.06 1175.88 272.276C1181.9 275.875 1189.59 276.914 1196.66 278.444C1208.39 280.98 1219.71 277.929 1230.87 274.699C1239.42 272.223 1246.22 266.815 1252.01 260.257C1254.97 256.897 1258.07 255.137 1262.71 255.33C1270.77 255.665 1278.86 255.424 1287.59 255.424ZM1205.75 150.256C1195.48 149.894 1185.81 151.871 1176.6 156.701C1168.48 160.956 1162.24 167.123 1157.23 174.478C1153.99 179.243 1151.4 184.582 1151.07 191.273C1158.17 191.273 1165.09 191.273 1172.01 191.273C1191.85 191.272 1211.68 191.27 1231.52 191.27C1239.59 191.27 1247.66 191.357 1255.72 191.21C1257.61 191.176 1259.48 190.351 1262 189.732C1258.9 183.624 1256.5 178.355 1253.63 173.35C1248.7 164.745 1240.87 158.894 1232.25 154.937C1224.5 151.382 1215.9 149.266 1205.75 150.256Z" fill="white"/>
</svg>
