<svg width="370" height="152" viewBox="0 0 370 152" fill="none" xmlns="http://www.w3.org/2000/svg">
<path d="M271.875 72.4589C269.544 75.1692 267.329 77.7538 265.126 80.3496C263.123 82.7111 261.142 85.092 259.136 87.4512C255.901 91.2555 252.653 95.0489 249.387 98.8752C250.162 99.676 251.001 99.3348 251.733 99.3364C263.051 99.3607 274.369 99.3526 285.687 99.354C288.76 99.3544 289.247 99.8762 289.235 102.963C289.218 107.585 289.245 112.207 289.235 116.828C289.229 119.422 288.592 120.076 286.015 120.077C258.995 120.084 231.975 120.084 204.955 120.077C203.066 120.077 202.789 119.887 202.283 118.087C201.709 116.046 201.224 113.979 200.625 111.631C200.059 112.021 199.524 112.287 199.12 112.686C193.99 117.744 187.697 120.483 180.735 121.799C178.572 122.207 176.313 122.544 174.14 122.375C170.537 122.095 166.862 121.751 163.404 120.773C154.799 118.337 148.434 113.026 144.16 105.068C142.191 101.401 141.287 97.4607 140.247 93.5469C139.727 91.5869 139.71 89.4574 139.699 87.4033C139.648 77.2884 139.676 67.1731 139.676 56.4591C139.11 57.3339 138.772 57.7079 138.598 58.1467C136.338 63.833 134.111 69.5323 131.855 75.2203C130.409 78.8671 128.899 82.4889 127.472 86.1431C125.82 90.3748 124.275 94.649 122.597 98.8704C120.012 105.372 117.336 111.837 114.734 118.332C112.454 124.023 110.458 129.82 107.655 135.305C104.677 141.134 100.646 145.878 94.5503 148.453C91.9726 149.542 89.151 150.212 86.3737 150.638C80.2416 151.579 74.0379 151.573 67.844 151.489C65.7612 151.461 64.9077 150.626 64.92 148.591C64.9524 143.254 64.9983 137.917 65.082 132.581C65.0952 131.743 65.3342 130.908 65.4864 129.961C67.152 129.961 68.6627 130.039 70.1628 129.946C73.7211 129.725 77.3121 129.656 80.8185 129.086C84.033 128.563 86.7071 126.841 88.2307 123.76C88.6497 122.913 88.9474 122.007 89.3577 121.155C90.7924 118.175 90.6522 115.483 88.9186 112.479C86.7535 108.727 85.2361 104.603 83.4275 100.645C81.9858 97.4895 80.5318 94.3401 79.0741 91.1925C76.5855 85.8189 74.0708 80.4572 71.603 75.074C69.6673 70.8517 67.8016 66.5972 65.8722 62.3719C65.118 60.7203 64.2748 59.1095 63.4171 57.3683C56.1061 57.3683 48.7293 57.3683 41.4832 57.3683C41.4832 58.4801 41.4832 59.4869 41.4832 60.4937C41.483 79.065 41.4829 97.6363 41.4828 116.208C41.4828 116.606 41.4977 117.005 41.4797 117.403C41.3934 119.307 40.7653 120.052 38.9129 120.063C32.1383 120.106 25.3631 120.098 18.5883 120.067C17.0976 120.06 16.7082 119.704 16.6413 118.255C16.5755 116.83 16.7582 115.396 16.7513 113.966C16.7132 106.004 16.6251 98.0429 16.6027 90.0814C16.5753 80.3575 16.5913 70.6334 16.6021 60.9094C16.6033 59.8142 16.6923 58.7191 16.7519 57.365C11.3553 57.365 6.14022 57.365 1.14089 57.365C-0.0891479 56.1093 -0.0286023 54.821 0.0203539 53.5517C0.108925 51.2548 0.307581 48.9595 0.317302 46.6629C0.328629 43.9862 0.187862 41.3089 0.110705 38.6319C0.0801404 37.5717 0.718994 37.0485 1.64487 36.8847C2.26375 36.7752 2.91642 36.8532 3.55396 36.8531C7.84222 36.852 12.1305 36.8525 16.7592 36.8525C16.7592 35.8183 16.7239 34.9719 16.7653 34.1293C16.9405 30.566 16.5951 27.0115 17.1476 23.424C17.6497 20.164 18.7041 17.1677 20.1529 14.3046C22.3079 10.0456 25.505 6.68165 29.6678 4.27987C32.5029 2.64417 35.575 1.58188 38.7614 1.01704C45.3552 -0.151861 52.0373 -0.00437963 58.7033 0.0175587C60.0583 0.0220253 61.414 -0.0111378 62.7681 0.0231783C64.9021 0.0772577 65.9789 0.966015 66.0084 2.99847C66.0813 8.01703 66.0571 13.0376 66.0149 18.0569C66.0023 19.5553 65.3382 20.0756 63.4452 20.1035C60.178 20.1518 56.9089 20.1608 53.6418 20.1081C47.0138 20.0013 42.1237 24.56 41.0117 30.6521C40.8703 31.427 40.7288 32.2101 40.6932 32.9943C40.6395 34.1751 40.6792 35.3602 40.6792 36.7442C54.174 36.7442 67.527 36.7442 81.1412 36.7442C88.2332 53.2305 95.2927 69.6411 102.518 86.4378C102.938 85.6432 103.225 85.2284 103.39 84.7699C106.631 75.7621 109.868 66.7527 113.084 57.736C115.278 51.5854 117.439 45.4232 119.615 39.2663C120.284 37.3731 120.884 36.8592 122.635 36.8579C135.946 36.848 149.257 36.8523 162.568 36.8576C162.88 36.8577 163.192 36.9217 163.782 36.9864C163.881 37.8034 164.063 38.6355 164.07 39.469C164.192 54.5188 164.179 69.5709 164.462 84.6175C164.552 89.4103 165.869 93.9816 169.847 97.2872C171.52 98.6769 173.384 99.6406 175.508 100.044C180.149 100.924 184.652 100.709 188.724 97.9888C192.521 95.4524 194.647 91.874 195.716 87.416C196.565 83.8764 196.57 80.3482 196.579 76.7925C196.613 64.6774 196.592 52.5622 196.593 40.447C196.593 39.8095 196.557 39.1678 196.617 38.5354C196.72 37.4289 197.28 36.7774 198.483 36.8517C198.88 36.8762 199.28 36.8528 199.679 36.8528C228.213 36.8527 256.748 36.8528 285.282 36.8529C285.916 36.8529 286.549 36.8529 287.52 36.8529C287.671 37.7786 287.932 38.6609 287.942 39.5458C287.986 43.69 287.929 47.8354 287.983 51.9793C287.997 53.0807 287.731 53.9552 287.002 54.7881C284.653 57.4734 282.356 60.2045 280.04 62.918C277.358 66.0581 274.677 69.1981 271.875 72.4589ZM246.424 68.2774C249.233 64.6168 252.647 61.4463 255.628 57.4405C243.904 57.4405 232.665 57.4405 221.339 57.4405C221.339 70.5745 221.339 83.5275 221.339 96.6469C222.656 96.2298 223.302 95.2253 224.048 94.3436C226.354 91.6138 228.637 88.8632 230.974 86.159C234.452 82.134 237.974 78.1473 241.465 74.1332C243.069 72.2884 244.643 70.4172 246.424 68.2774Z" fill="url(#paint0_linear_1988_3399)"/>
<path d="M354.836 93.2835C359.095 93.4589 363.155 92.8586 367.343 93.7918C367.275 94.5117 367.392 95.2062 367.132 95.7046C365.749 98.3587 364.604 101.152 362.553 103.425C361.132 105 359.889 106.737 358.464 108.308C354.569 112.603 349.901 115.865 344.562 118.077C339.378 120.225 334.072 121.915 328.331 121.876C325.582 121.857 322.837 122.02 320.074 121.92C315.754 121.764 311.62 120.856 307.606 119.384C302.604 117.549 298.023 115.035 293.977 111.439C289.871 107.791 286.56 103.589 284.27 98.6809C282.788 95.5029 281.681 92.0818 280.916 88.6558C280.163 85.2802 279.734 81.7599 279.747 78.3052C279.759 74.769 280.309 71.2049 280.929 67.7072C281.972 61.8312 284.57 56.5368 287.993 51.7264C291.727 46.4804 296.775 42.6987 302.455 39.6779C306.546 37.5018 310.894 36.1505 315.39 35.3399C319.502 34.5985 323.69 34.051 327.885 34.4867C330.776 34.7869 333.654 35.3032 336.505 35.8866C340.709 36.7469 344.555 38.5525 348.283 40.6373C353.854 43.7528 358.314 48.025 361.674 53.439C362.668 55.0411 363.653 56.6635 364.465 58.3612C366.335 62.2705 367.564 66.3669 368.395 70.6503C369.185 74.7272 369.618 78.7848 369.592 82.9151C369.576 85.5819 369.215 85.9044 366.586 85.6638C366.032 85.6131 365.471 85.6408 364.913 85.6408C345.782 85.6405 326.65 85.6397 307.519 85.6467C306.59 85.647 305.66 85.7176 304.629 85.7595C305.544 92.0735 309.02 96.4374 314.037 99.4383C316.235 100.752 319.044 101.132 321.628 101.691C325.911 102.617 330.045 101.503 334.119 100.323C337.241 99.4189 339.727 97.4436 341.841 95.0486C342.924 93.8216 344.055 93.1789 345.75 93.2493C348.694 93.3716 351.647 93.2835 354.836 93.2835ZM324.946 54.8752C321.195 54.7428 317.664 55.4649 314.299 57.229C311.336 58.7827 309.056 61.035 307.226 63.7213C306.042 65.4615 305.095 67.4113 304.976 69.8548C307.57 69.8548 310.097 69.8549 312.624 69.8548C319.869 69.8545 327.113 69.8539 334.357 69.8538C337.304 69.8537 340.252 69.8856 343.198 69.832C343.887 69.8194 344.57 69.5182 345.491 69.2922C344.359 67.0614 343.479 65.1372 342.432 63.3091C340.632 60.1665 337.774 58.0297 334.623 56.5846C331.793 55.2864 328.653 54.5134 324.946 54.8752Z" fill="url(#paint1_linear_1988_3399)"/>
<defs>
<linearGradient id="paint0_linear_1988_3399" x1="259.31" y1="151.524" x2="110.284" y2="-1.24445e-09" gradientUnits="userSpaceOnUse">
<stop stop-color="#DD3305"/>
<stop offset="0.5" stop-color="#FF6B3A"/>
<stop offset="1" stop-color="#FFB347"/>
</linearGradient>
<linearGradient id="paint1_linear_1988_3399" x1="259.31" y1="151.524" x2="110.284" y2="-1.24445e-09" gradientUnits="userSpaceOnUse">
<stop stop-color="#DD3305"/>
<stop offset="0.5" stop-color="#FF6B3A"/>
<stop offset="1" stop-color="#FFB347"/>
</linearGradient>
</defs>
</svg>
