<svg width="39" height="36" viewBox="0 0 39 36" fill="none" xmlns="http://www.w3.org/2000/svg">
<path d="M39 0V6.13333C37.0741 6.48889 35.4983 7.37778 34.2727 8.8C33.1347 10.1333 32.2593 11.8222 31.6465 13.8667C31.1212 15.9111 30.8586 18.1333 30.8586 20.5333H37.8182V36H23.2424V22C23.2424 16.8444 23.9865 12.7556 25.4747 9.73333C27.0505 6.71111 29.0202 4.44445 31.3838 2.93333C33.835 1.42222 36.3737 0.444444 39 0ZM15.7576 0V6.13333C13.8317 6.48889 12.2559 7.37778 11.0303 8.8C9.89225 10.1333 9.01684 11.8222 8.40404 13.8667C7.87879 15.9111 7.61616 18.1333 7.61616 20.5333H14.5758V36H0V22C0 16.8444 0.744108 12.7556 2.23232 9.73333C3.80808 6.71111 5.77778 4.44445 8.14141 2.93333C10.5926 1.42222 13.1313 0.444444 15.7576 0Z" fill="#D1D1D1"/>
</svg>
